<mxfile host="app.diagrams.net" agent="Mozilla/5.0 (Windows NT 10.0; Win64; x64) AppleWebKit/537.36 (KHTML, like Gecko) Chrome/133.0.0.0 Safari/537.36" version="26.1.0">
  <diagram name="PÃ¡gina-1" id="NNLzbwMNJ9crx5YOQqln">
    <mxGraphModel dx="1410" dy="1921" grid="1" gridSize="10" guides="1" tooltips="1" connect="1" arrows="1" fold="1" page="1" pageScale="1" pageWidth="827" pageHeight="1169" math="0" shadow="0">
      <root>
        <mxCell id="0" />
        <mxCell id="1" parent="0" />
        <mxCell id="zxKE95URGm0AIfu3IPX2-13" value="" style="edgeStyle=orthogonalEdgeStyle;rounded=0;orthogonalLoop=1;jettySize=auto;html=1;" edge="1" parent="1" source="Lp8KJfEKuTA1DhdcgpUj-1" target="Lp8KJfEKuTA1DhdcgpUj-19">
          <mxGeometry relative="1" as="geometry" />
        </mxCell>
        <mxCell id="Lp8KJfEKuTA1DhdcgpUj-1" value="Usuario&lt;div&gt;&quot;Conserje&quot;&lt;/div&gt;" style="shape=umlActor;verticalLabelPosition=bottom;verticalAlign=top;html=1;outlineConnect=0;" parent="1" vertex="1">
          <mxGeometry x="265" y="-10" width="30" height="60" as="geometry" />
        </mxCell>
        <mxCell id="Lp8KJfEKuTA1DhdcgpUj-5" value="index.php" style="rounded=0;whiteSpace=wrap;html=1;verticalAlign=top;fillColor=#f5f5f5;fontColor=#333333;strokeColor=#666666;shadow=1;" parent="1" vertex="1">
          <mxGeometry x="160" y="120" width="240" height="360" as="geometry" />
        </mxCell>
        <mxCell id="Lp8KJfEKuTA1DhdcgpUj-13" value="empleado.php" style="shape=note;whiteSpace=wrap;html=1;backgroundOutline=1;darkOpacity=0.05;" parent="1" vertex="1">
          <mxGeometry x="430" y="230" width="80" height="100" as="geometry" />
        </mxCell>
        <mxCell id="Lp8KJfEKuTA1DhdcgpUj-19" value="Comprueba&lt;div&gt;&amp;nbsp;$_SESSION&lt;/div&gt;" style="rhombus;whiteSpace=wrap;html=1;" parent="1" vertex="1">
          <mxGeometry x="220" y="160" width="120" height="60" as="geometry" />
        </mxCell>
        <mxCell id="Lp8KJfEKuTA1DhdcgpUj-33" value="Muestra error" style="rounded=1;whiteSpace=wrap;html=1;" parent="1" vertex="1">
          <mxGeometry x="220" y="440" width="120" height="25" as="geometry" />
        </mxCell>
        <mxCell id="zxKE95URGm0AIfu3IPX2-1" value="login.php" style="shape=note;whiteSpace=wrap;html=1;backgroundOutline=1;darkOpacity=0.05;" vertex="1" parent="1">
          <mxGeometry x="50" y="140" width="80" height="100" as="geometry" />
        </mxCell>
        <mxCell id="zxKE95URGm0AIfu3IPX2-2" value="welcome.php" style="shape=note;whiteSpace=wrap;html=1;backgroundOutline=1;darkOpacity=0.05;" vertex="1" parent="1">
          <mxGeometry x="50" y="313" width="80" height="100" as="geometry" />
        </mxCell>
        <mxCell id="zxKE95URGm0AIfu3IPX2-3" value="Incluye Rol&lt;div&gt;&quot;Empleado&quot;&lt;/div&gt;" style="rhombus;whiteSpace=wrap;html=1;" vertex="1" parent="1">
          <mxGeometry x="220" y="250" width="120" height="60" as="geometry" />
        </mxCell>
        <mxCell id="zxKE95URGm0AIfu3IPX2-4" value="Incluye Rol&lt;div&gt;&quot;Conserje&quot;&lt;/div&gt;" style="rhombus;whiteSpace=wrap;html=1;" vertex="1" parent="1">
          <mxGeometry x="220" y="347.5" width="120" height="60" as="geometry" />
        </mxCell>
        <mxCell id="zxKE95URGm0AIfu3IPX2-5" value="" style="endArrow=classic;html=1;rounded=0;entryX=0.5;entryY=0;entryDx=0;entryDy=0;" edge="1" parent="1" target="Lp8KJfEKuTA1DhdcgpUj-5">
          <mxGeometry width="50" height="50" relative="1" as="geometry">
            <mxPoint x="280" y="90" as="sourcePoint" />
            <mxPoint x="440" y="260" as="targetPoint" />
          </mxGeometry>
        </mxCell>
        <mxCell id="zxKE95URGm0AIfu3IPX2-6" value="" style="endArrow=classic;html=1;rounded=0;exitX=0.5;exitY=1;exitDx=0;exitDy=0;entryX=0.5;entryY=0;entryDx=0;entryDy=0;" edge="1" parent="1" source="Lp8KJfEKuTA1DhdcgpUj-19" target="zxKE95URGm0AIfu3IPX2-3">
          <mxGeometry width="50" height="50" relative="1" as="geometry">
            <mxPoint x="390" y="310" as="sourcePoint" />
            <mxPoint x="440" y="260" as="targetPoint" />
          </mxGeometry>
        </mxCell>
        <mxCell id="zxKE95URGm0AIfu3IPX2-7" value="" style="endArrow=classic;html=1;rounded=0;exitX=0.5;exitY=1;exitDx=0;exitDy=0;" edge="1" parent="1" source="zxKE95URGm0AIfu3IPX2-3" target="zxKE95URGm0AIfu3IPX2-4">
          <mxGeometry width="50" height="50" relative="1" as="geometry">
            <mxPoint x="390" y="310" as="sourcePoint" />
            <mxPoint x="440" y="260" as="targetPoint" />
          </mxGeometry>
        </mxCell>
        <mxCell id="zxKE95URGm0AIfu3IPX2-8" value="" style="endArrow=classic;html=1;rounded=0;exitX=0.5;exitY=1;exitDx=0;exitDy=0;entryX=0.5;entryY=0;entryDx=0;entryDy=0;" edge="1" parent="1" source="zxKE95URGm0AIfu3IPX2-4" target="Lp8KJfEKuTA1DhdcgpUj-33">
          <mxGeometry width="50" height="50" relative="1" as="geometry">
            <mxPoint x="390" y="310" as="sourcePoint" />
            <mxPoint x="440" y="260" as="targetPoint" />
          </mxGeometry>
        </mxCell>
        <mxCell id="zxKE95URGm0AIfu3IPX2-9" value="" style="endArrow=classic;html=1;rounded=0;exitX=1;exitY=0.5;exitDx=0;exitDy=0;entryX=0;entryY=0.5;entryDx=0;entryDy=0;entryPerimeter=0;" edge="1" parent="1" source="zxKE95URGm0AIfu3IPX2-3" target="Lp8KJfEKuTA1DhdcgpUj-13">
          <mxGeometry width="50" height="50" relative="1" as="geometry">
            <mxPoint x="390" y="310" as="sourcePoint" />
            <mxPoint x="440" y="260" as="targetPoint" />
          </mxGeometry>
        </mxCell>
        <mxCell id="zxKE95URGm0AIfu3IPX2-10" value="" style="endArrow=classic;html=1;rounded=0;exitX=0.25;exitY=0.194;exitDx=0;exitDy=0;exitPerimeter=0;entryX=1;entryY=0.53;entryDx=0;entryDy=0;entryPerimeter=0;" edge="1" parent="1" source="Lp8KJfEKuTA1DhdcgpUj-5" target="zxKE95URGm0AIfu3IPX2-1">
          <mxGeometry width="50" height="50" relative="1" as="geometry">
            <mxPoint x="390" y="310" as="sourcePoint" />
            <mxPoint x="440" y="260" as="targetPoint" />
          </mxGeometry>
        </mxCell>
        <mxCell id="zxKE95URGm0AIfu3IPX2-11" value="" style="endArrow=classic;html=1;rounded=0;exitX=0;exitY=0.5;exitDx=0;exitDy=0;entryX=0;entryY=0;entryDx=80;entryDy=65;entryPerimeter=0;" edge="1" parent="1" source="zxKE95URGm0AIfu3IPX2-4" target="zxKE95URGm0AIfu3IPX2-2">
          <mxGeometry width="50" height="50" relative="1" as="geometry">
            <mxPoint x="390" y="310" as="sourcePoint" />
            <mxPoint x="440" y="260" as="targetPoint" />
          </mxGeometry>
        </mxCell>
        <mxCell id="zxKE95URGm0AIfu3IPX2-12" value="" style="endArrow=classic;html=1;rounded=0;exitX=0;exitY=0;exitDx=25;exitDy=0;exitPerimeter=0;entryX=0.5;entryY=0;entryDx=0;entryDy=0;" edge="1" parent="1" source="zxKE95URGm0AIfu3IPX2-1" target="Lp8KJfEKuTA1DhdcgpUj-19">
          <mxGeometry width="50" height="50" relative="1" as="geometry">
            <mxPoint x="390" y="310" as="sourcePoint" />
            <mxPoint x="440" y="260" as="targetPoint" />
            <Array as="points">
              <mxPoint x="75" y="100" />
              <mxPoint x="280" y="100" />
            </Array>
          </mxGeometry>
        </mxCell>
      </root>
    </mxGraphModel>
  </diagram>
</mxfile>
